<svg xmlns="http://www.w3.org/2000/svg" width="64" height="64" viewBox="0 0 64 64"><path d="M16.9230769,0 C15.0509615,0 13.5384615,1.50820313 13.5384615,3.375 C13.5384615,5.24179688 15.0509615,6.75 16.9230769,6.75 L18.6153846,6.75 L18.6153846,10.378125 C8.07019231,12.0023438 0,21.09375 0,32.0625 C0,44.1808594 9.84711538,54 22,54 C34.1528846,54 44,44.1808594 44,32.0625 C44,27.6539063 42.6990385,23.5511719 40.4567308,20.1234375 L43.0057692,17.5816406 C44.3278846,16.2632813 44.3278846,14.1222656 43.0057692,12.8039063 C41.6836538,11.4855469 39.5365385,11.4855469 38.2144231,12.8039063 L35.9298077,15.0820313 C32.9576923,12.65625 29.3509615,10.9898438 25.3846154,10.378125 L25.3846154,6.75 L27.0769231,6.75 C28.9490385,6.75 30.4615385,5.24179688 30.4615385,3.375 C30.4615385,1.50820313 28.9490385,0 27.0769231,0 L22,0 L16.9230769,0 Z M24.5384615,20.25 L24.5384615,33.75 C24.5384615,35.1527344 23.4067308,36.28125 22,36.28125 C20.5932692,36.28125 19.4615385,35.1527344 19.4615385,33.75 L19.4615385,20.25 C19.4615385,18.8472656 20.5932692,17.71875 22,17.71875 C23.4067308,17.71875 24.5384615,18.8472656 24.5384615,20.25 Z" transform="translate(10 5)"/></svg>