<svg xmlns="http://www.w3.org/2000/svg" width="64" height="64" viewBox="0 0 64 64"><path d="M6.85714286,0 C3.075,0 0,3.075 0,6.85714286 L0,41.1428571 C0,44.925 3.075,48 6.85714286,48 L41.1428571,48 C44.925,48 48,44.925 48,41.1428571 L48,6.85714286 C48,3.075 44.925,0 41.1428571,0 L6.85714286,0 Z M13.7142857,20.5714286 C15.6107143,20.5714286 17.1428571,22.1035714 17.1428571,24 L17.1428571,34.2857143 C17.1428571,36.1821429 15.6107143,37.7142857 13.7142857,37.7142857 C11.8178571,37.7142857 10.2857143,36.1821429 10.2857143,34.2857143 L10.2857143,24 C10.2857143,22.1035714 11.8178571,20.5714286 13.7142857,20.5714286 Z M20.5714286,13.7142857 C20.5714286,11.8178571 22.1035714,10.2857143 24,10.2857143 C25.8964286,10.2857143 27.4285714,11.8178571 27.4285714,13.7142857 L27.4285714,34.2857143 C27.4285714,36.1821429 25.8964286,37.7142857 24,37.7142857 C22.1035714,37.7142857 20.5714286,36.1821429 20.5714286,34.2857143 L20.5714286,13.7142857 Z M34.2857143,27.4285714 C36.1821429,27.4285714 37.7142857,28.9607143 37.7142857,30.8571429 L37.7142857,34.2857143 C37.7142857,36.1821429 36.1821429,37.7142857 34.2857143,37.7142857 C32.3892857,37.7142857 30.8571429,36.1821429 30.8571429,34.2857143 L30.8571429,30.8571429 C30.8571429,28.9607143 32.3892857,27.4285714 34.2857143,27.4285714 Z" transform="translate(8 8)"/></svg>