<?xml version="1.0" encoding="UTF-8"?>
<svg width="64px" height="64px" viewBox="0 0 64 64" version="1.1" xmlns="http://www.w3.org/2000/svg" xmlns:xlink="http://www.w3.org/1999/xlink">
    <title>custom_tag</title>
    <g id="custom_tag" stroke="none" stroke-width="1" fill="none" fill-rule="evenodd">
        <g id="Group" transform="translate(8.000000, 8.000000)" fill="#000000" fill-rule="nonzero">
            <path d="M0,5.25598262 L0,21.6601171 C0,23.5254702 0.735169734,25.3140147 2.05189164,26.6307345 L21.363813,45.9426253 C24.1069837,48.6857916 28.5509201,48.6857916 31.2940908,45.9426253 L45.942622,31.2941172 C48.6857927,28.5509509 48.6857927,24.1070215 45.942622,21.3638552 L26.6307007,2.05196438 C25.3139787,0.73524455 23.5254315,3.78582517e-05 21.6600754,3.78582517e-05 L5.26688764,3.78582517e-05 C2.35912676,-0.0108966848 0,2.34822634 0,5.25598262 Z M12.2894045,8.76723549 C14.228619,8.76723549 15.8006629,10.339277 15.8006629,12.2784884 C15.8006629,14.2176998 14.228619,15.7897412 12.2894045,15.7897412 C10.35019,15.7897412 8.77814607,14.2176998 8.77814607,12.2784884 C8.77814607,10.339277 10.35019,8.76723549 12.2894045,8.76723549 Z" id="Shape"></path>
        </g>
    </g>
</svg>