<svg xmlns="http://www.w3.org/2000/svg" width="64" height="64" viewBox="0 0 64 64"><path d="M12.6,40 C5.64375,40 0,34.2410714 0,27.1428571 C0,21.5357143 3.5175,16.7678571 8.4175,15.0089286 C8.40875,14.7678571 8.4,14.5267857 8.4,14.2857143 C8.4,6.39285714 14.665,0 22.4,0 C27.58875,0 32.1125,2.875 34.53625,7.16071429 C35.86625,6.25 37.47625,5.71428571 39.2,5.71428571 C43.8375,5.71428571 47.6,9.55357143 47.6,14.2857143 C47.6,15.375 47.39875,16.4107143 47.04,17.375 C52.15,18.4285714 56,23.0446429 56,28.5714286 C56,34.8839286 50.98625,40 44.8,40 L12.6,40 Z M19.5125,25.0892857 L26.5125,32.2321429 C27.335,33.0714286 28.665,33.0714286 29.47875,32.2321429 L36.47875,25.0892857 C37.30125,24.25 37.30125,22.8928571 36.47875,22.0625 C35.65625,21.2321429 34.32625,21.2232143 33.5125,22.0625 L30.1,25.5446429 L30.1,13.5714286 C30.1,12.3839286 29.16375,11.4285714 28,11.4285714 C26.83625,11.4285714 25.9,12.3839286 25.9,13.5714286 L25.9,25.5446429 L22.4875,22.0625 C21.665,21.2232143 20.335,21.2232143 19.52125,22.0625 C18.7075,22.9017857 18.69875,24.2589286 19.52125,25.0892857 L19.5125,25.0892857 Z" transform="translate(4 12)"/></svg>