<svg t="1679799459490" class="icon" viewBox="0 0 1024 1024" version="1.1" xmlns="http://www.w3.org/2000/svg" p-id="5312"
     width="200" height="200">
    <path d="M85.333333 213.333333a42.666667 42.666667 0 0 1 42.666667-42.666666h554.666667a42.666667 42.666667 0 0 1 0 85.333333H128a42.666667 42.666667 0 0 1-42.666667-42.666667z m810.666667 256H128a42.666667 42.666667 0 0 0 0 85.333334h768a42.666667 42.666667 0 0 0 0-85.333334z m-384 298.666667H128a42.666667 42.666667 0 0 0 0 85.333333h384a42.666667 42.666667 0 0 0 0-85.333333z"
          fill="#bfbfbf" p-id="5313"></path>
</svg>
