<?xml version="1.0" encoding="UTF-8"?>
<svg width="240px" height="240px" viewBox="0 0 240 240" version="1.1" xmlns="http://www.w3.org/2000/svg" xmlns:xlink="http://www.w3.org/1999/xlink">
    <g id="logo" stroke="none" stroke-width="1" fill="none" fill-rule="evenodd">
        <g id="social-paypal" transform="translate(38.726345, 20.000000)" fill-rule="nonzero">
            <path d="M72.0236554,47.0708334 L128.440322,47.0708334 C158.731989,47.0708334 170.131989,62.4041668 168.373655,84.9625 C165.469489,122.158333 142.981989,142.725 113.152822,142.725 L98.0944888,142.725 C94.0111554,142.725 91.2569888,145.425 90.1444888,152.766667 L83.6861554,195.408333 C83.265322,198.175 81.8111554,199.804167 79.6194888,200 L44.2444888,200 C40.9153222,200 39.7319888,197.454167 40.602822,191.9375 L62.2069888,55.1625 C63.0694888,49.6791666 66.0694888,47.0708334 72.027822,47.0708334 L72.0236554,47.0708334 Z" id="Path" fill="#EAC134"></path>
            <path d="M36.7569888,0 L93.2319888,0 C109.140322,0 128.002822,0.516666602 140.623655,11.6458334 C149.052822,19.0791668 153.473655,30.925 152.456989,43.6458334 C148.981989,86.7583334 123.190322,110.916667 88.6069888,110.916667 L60.752822,110.916667 C56.0111554,110.916667 52.8694886,114.054167 51.5319888,122.5625 L43.7611554,172.004167 C43.2611554,175.2125 41.865322,177.104167 39.327822,177.329167 L4.54032201,177.329167 C0.681988616,177.329167 -0.688844587,174.379167 0.319488812,167.983333 L25.3694888,9.3833334 C26.3694888,3.025 29.8486554,0 36.7569888,0 Z" id="Path" fill="#DB7912"></path>
            <path d="M52.3444888,117.579167 L62.2069888,55.1625 C63.0694888,49.6791666 66.0694888,47.0708334 72.027822,47.0708334 L128.440322,47.0708334 C137.777822,47.0708334 145.323655,48.5291668 151.236155,51.2166666 C145.569489,89.5916666 120.748655,110.916667 88.240322,110.916667 L60.3986554,110.916667 C56.7319888,110.916667 53.9944888,112.791667 52.3486554,117.579167 L52.3444888,117.579167 Z" id="Path" fill="#E29420"></path>
        </g>
    </g>
</svg>
