<svg xmlns="http://www.w3.org/2000/svg" width="240" height="240"><g fill="none" transform="translate(5 18)"><path fill="#A0616A" d="M178.141 130.046a2.657 2.657 0 0 1 1.394-3.832l-.137-9.448 4.14 2.643-.504 8.567a2.676 2.676 0 0 1-4.893 2.07z"/><path fill="#F9A826" d="M173.151 78.75a5.387 5.387 0 0 0-4.45 5.186c-.06 2.765.863 3.796 2.168 4.169 2.413.688 6.254 14.617 6.254 14.617s.408 12.992 1.066 12.35c.657-.641-.087.856.113 1.312.2.457-.948 1.142.143 1.66 1.09.519.401 4.651.401 4.651l4.824-.344s-.8-3.366.29-3.577c1.09-.21.594-1.169.152-1.895-.441-.726.781-1.762.17-2.105-.612-.343 1.111-13.774 1.111-13.774l-6.736-19.808a5.392 5.392 0 0 0-5.506-2.442z"/><path fill="#F9A826" d="M158.515 79.53L161.985 73.451 166.674 73.451 170.19 79.874z"/><path fill="#F2F2F2" d="M149.18 24.866c-2.773-9.282-10.607-15.342-20.073-16.671-.104-.015-.203.005-.306-.002a2.993 2.993 0 0 0-.41-.094c-13.018-1.682-27.23 1.33-38.54 8.402-10.842 6.779-23.3 10.604-36.088 10.52-.397-.004-.796.005-1.196.025-9.842.49-18.528 7.65-21.189 17.067-.349 1.235.26 2.34 1.238 3.04 1.72 1.23 2.894 2.093 5.01 2.54 3.774.8 7.561 1.534 11.361 2.205V36.77a5.41 5.41 0 0 1 5.406-5.402h74.25a5.41 5.41 0 0 1 5.405 5.402v18.84a22.242 22.242 0 0 0 2.975-1.17 23.027 23.027 0 0 0 8.88-7.744c4.299-6.233 5.434-14.61 3.277-21.83zm-31.262 88.532H52.28a5.718 5.718 0 0 1-5.713-5.71V82.236a59.641 59.641 0 0 0-24.714-2.165 2.993 2.993 0 0 0-.409.095c-.103.006-.202-.013-.306.002-9.466 1.329-17.3 7.389-20.073 16.67-2.158 7.22-1.022 15.597 3.277 21.83a23.027 23.027 0 0 0 8.88 7.744c4.923 2.37 10.105 2.548 15.479 2.716a351.13 351.13 0 0 0 48.333-1.826 361.764 361.764 0 0 0 23.598-3.32 343.475 343.475 0 0 0 11.987-2.316c2.116-.448 3.29-1.31 5.01-2.54.978-.701 1.587-1.805 1.237-3.04a22.653 22.653 0 0 0-.948-2.688z"/><path fill="#E6E6E6" d="M123.727 105.847H59.309a4.694 4.694 0 0 1-4.69-4.687V41.336a4.694 4.694 0 0 1 4.69-4.687h64.418a4.694 4.694 0 0 1 4.69 4.687v59.824a4.694 4.694 0 0 1-4.69 4.687z"/><path fill="#FFF" d="M110.169 102.686H62.473a4.694 4.694 0 0 1-4.69-4.687v-53.5a4.694 4.694 0 0 1 4.69-4.686h58.09a4.694 4.694 0 0 1 4.69 4.687V87.61c-.009 8.322-6.757 15.065-15.084 15.075z"/><ellipse cx="91.518" cy="71.249" fill="#F9A826" rx="21.02" ry="21.006"/><path fill="#FFF" d="M100.373 70.192l-7.014-8.524a2.068 2.068 0 0 0-3.15-.052l-7.501 8.524a2.065 2.065 0 0 0 .187 2.917c.857.753 2.164.67 2.918-.188l3.881-4.41v11.06a2.067 2.067 0 0 0 4.135 0V68.745l3.35 4.071a2.069 2.069 0 0 0 2.91.284 2.065 2.065 0 0 0 .284-2.909z"/><path fill="#A0616A" d="M182.104 199.156L178.985 199.156 177.502 187.135 182.105 187.135z"/><path fill="#2F2E41" d="M182.213 202.407h-9.59v-.122c.001-2.06 1.672-3.73 3.733-3.73l1.752-1.328 3.269 1.329h.837v3.851z"/><path fill="#A0616A" d="M158.671 199.156L155.553 199.156 154.069 187.135 158.672 187.135z"/><path fill="#2F2E41" d="M158.78 202.407h-9.589v-.122c0-2.06 1.671-3.73 3.733-3.73l1.752-1.328 3.268 1.329h.837v3.851zm24.318-13.2c1.138-.743.479-.694.479-.694s-2.544-20.614-4.48-26.861l-2.24-30.42s-.142.607 0-.868 1.176-.442.142-1.475c-1.033-1.033-1.723-1.56-1.033-2.33.689-.769 2.59-2.327 1.467-3.27-1.123-.943-3.332-7.093-3.332-7.093l-21.538.172.861-.172s-2.688-.997-1.457.3c1.232 1.3-.689 4.478-1.378 7.577-.57 2.567-2.265 3.248 0 3.788 2.265.54.215 2.07.215 2.07s-3.41 16.224-.826 26.9c0 0 1.783 26.403 2.686 28.674.903 2.27 1.247.893.903 2.27-.345 1.378-1.034-1.033-.345 1.378.376 1.26.674 2.54.892 3.836l4.673-.344s1.086-3.419 0-4.316c-1.085-.898-.336 1.721.84-.277 1.176-1.998-.202-1.31-.547-4.064-.344-2.755 2.817-15.59.547-23.464l4.195-22.095 6.66 22.879s3.532 27.941 4.68 28.926c1.148.985.685-1.405 1.148.985.468 2.416 1.532 1.775 1.502 2.072-.32 3.158 5.286.043 5.286.043a17.676 17.676 0 0 1 0-2.41c.104-.738-1.138-.974 0-1.717z"/><path fill="#3F3D56" d="M154.724 123.384c-1.378 0-5.169-1.865-4.48-2.655.69-.789.69-3.408.69-4.164 0-.757 3.101-28.65 3.101-28.65l-.236-6.83a3.05 3.05 0 0 1 3.052-3.157l3.042-1.033 8.615-.345 4.296 1.378a2.49 2.49 0 0 1 2.218 3.62 22.398 22.398 0 0 1 3.292 12.381c-.099 3.262-1.752 7.245-2.15 10.93-.036.32-.06.64-.075.963-.003.088-.709.53-.01.265.7-.266-.375.671-.01 1.236s1.072.219.03.908c-1.043.69 1.25 7.35 1.024 7.577-.69.689-2.067 1.033-1.034 2.066 1.034 1.033 2.068.345.69 1.722-1.379 1.378-5.509 3.788-5.509 3.788h-16.546z"/><ellipse cx="163.937" cy="65.14" fill="#A0616A" rx="7.417" ry="7.412"/><path fill="#A0616A" d="M118.763 88.136a2.662 2.662 0 0 1 3.66 1.8l9.414.89-3.08 3.827-8.466-1.431a2.673 2.673 0 1 1-1.528-5.085z"/><path fill="#F9A826" d="M163.396 82.619a5.388 5.388 0 0 0-5.19-4.447c-2.766-.06-3.798.863-4.17 2.167-.69 2.41-11.785 10.884-11.785 10.884l-9.529-1.03c-.573-.187-.3-.708-2.455-.266-1.062-.695-1.747-.577-2.338-.253l-3.529-.382.345 5.51s3.777-.898 4.48.689c.701 1.587.54 1.815 2.067.689 1.527-1.126 1.378 0 1.378 0l11.028 2.755L160.95 88.12a5.385 5.385 0 0 0 2.445-5.502z"/><path fill="#2F2E41" d="M166.816 71.756l.486.155c-1.52.128-4.228.975-3.963.507.266-.469-.737-2.235-.248-2.46a3.112 3.112 0 0 0 1.316-.891c.31-.434.304-1.15-.162-1.415-.45-.262-1.01.02-1.457.285-.452.262-1.285-3.588-1.072-4.79-1.258-.688-2.78.63-4.194.372-.865-.158-1.488-.868-1.881-1.673a5.25 5.25 0 0 0 1.389-2.211c-.6.302-1.241.514-1.903.63a4.464 4.464 0 0 1 .049-1.887 3.08 3.08 0 0 1 1.92-2.183 2.234 2.234 0 0 1 2.618.97 2.219 2.219 0 0 0-1.406-2.203 2.336 2.336 0 0 1 3.36 1.587 7.218 7.218 0 0 1 5.028-.537c1.667.437 3.88 2.287 3.88 2.287 3.763.83 3.584 15.128-3.76 13.457z"/><path fill="#F2F2F2" d="M206.11 199.452a.42.42 0 0 0 .303-.726l-.028-.114.01-.028a1.126 1.126 0 0 1 2.077.008c.34.817.772 1.636.879 2.5.047.382.027.77-.059 1.145a13.335 13.335 0 0 0 1.215-5.541 12.87 12.87 0 0 0-.264-2.602 13.493 13.493 0 0 0-2.678-5.72 3.593 3.593 0 0 1-1.495-1.55 2.738 2.738 0 0 1-.25-.749 3.38 3.38 0 0 0 .22-1.166c.102-.154.283-.23.394-.38.55-.746 1.31-.616 1.706.398.846.427.854 1.135.335 1.816-.33.433-.376 1.02-.666 1.483l.091.114c.545.7 1.02 1.452 1.419 2.246a5.643 5.643 0 0 1 .337-2.623c.323-.779.928-1.434 1.461-2.107a1.16 1.16 0 0 1 2.066.569l.003.03c-.079.044-.157.091-.232.141a.568.568 0 0 0 .23 1.035l.01.001a5.65 5.65 0 0 1-.149.846c.684 2.642-.792 3.605-2.9 3.648l-.138.07c.4 1.134.651 2.314.747 3.513.054.707.05 1.416-.01 2.123l.004-.025a3.474 3.474 0 0 1 1.187-2.007c.913-.75 2.204-1.026 3.19-1.629a.653.653 0 0 1 .999.635l-.004.026a3.82 3.82 0 0 0-.66.348.568.568 0 0 0 .228 1.035l.012.001.024.004a5.658 5.658 0 0 1-1.042 1.63c-.427 2.307-2.264 2.525-4.228 1.853h-.001a13.855 13.855 0 0 1-.932 2.719h-3.328l-.034-.112c.308.019.618 0 .921-.055l-.74-.911a.208.208 0 0 1-.016-.018l-.377-.463a5.532 5.532 0 0 1 .162-1.411z"/><path fill="#CACACA" d="M95.291 202.894L229.59 203a.41.41 0 1 0 0-.82l-134.299-.106a.41.41 0 1 0 0 .82z"/><path fill="#F2F2F2" d="M88.43 145.424a4.869 4.869 0 1 1-3.447-8.316 4.877 4.877 0 0 1 8.322 3.445 4.879 4.879 0 0 1-4.875 4.87zm0-9.054a4.184 4.184 0 0 0-4.186 4.183 4.184 4.184 0 0 0 4.186 4.182 4.184 4.184 0 0 0 4.185-4.182 4.189 4.189 0 0 0-4.185-4.183z"/><path fill="#F2F2F2" d="M90.338 140.325l-1.511-1.838a.446.446 0 0 0-.68-.01l-1.615 1.836a.445.445 0 0 0 .668.588l.837-.95v2.383a.445.445 0 0 0 .89 0v-2.321l.723.877a.446.446 0 0 0 .688-.565zM143.91 73.45a4.869 4.869 0 1 1-3.447-8.316 4.877 4.877 0 0 1 8.322 3.445 4.879 4.879 0 0 1-4.875 4.87zm0-9.054a4.184 4.184 0 0 0-4.185 4.183 4.184 4.184 0 0 0 4.185 4.182 4.184 4.184 0 0 0 4.186-4.182 4.189 4.189 0 0 0-4.186-4.183z"/><path fill="#F2F2F2" d="M145.819 68.352l-1.512-1.837a.446.446 0 0 0-.68-.011l-1.615 1.837a.445.445 0 0 0 .669.588l.836-.95v2.383a.445.445 0 0 0 .891 0V68.04l.722.878a.446.446 0 0 0 .689-.566zm-111.835.966a4.869 4.869 0 1 1-3.447-8.316 4.877 4.877 0 0 1 8.321 3.445 4.879 4.879 0 0 1-4.874 4.871zm0-9.053a4.184 4.184 0 0 0-4.186 4.182 4.184 4.184 0 0 0 4.186 4.183 4.184 4.184 0 0 0 4.185-4.183 4.189 4.189 0 0 0-4.185-4.182z"/><path fill="#F2F2F2" d="M35.892 64.22l-1.512-1.838a.446.446 0 0 0-.679-.01l-1.616 1.836a.445.445 0 0 0 .67.588l.835-.95v2.383a.445.445 0 0 0 .892 0v-2.321l.721.877a.446.446 0 0 0 .689-.565zM72.923 9.743a4.869 4.869 0 1 1-3.447-8.316 4.877 4.877 0 0 1 8.322 3.445 4.879 4.879 0 0 1-4.875 4.871zm0-9.054a4.184 4.184 0 0 0-4.185 4.183 4.184 4.184 0 0 0 4.185 4.183 4.184 4.184 0 0 0 4.186-4.183A4.189 4.189 0 0 0 72.923.69z"/><path fill="#F2F2F2" d="M74.831 4.644L73.32 2.807a.446.446 0 0 0-.68-.01l-1.615 1.836a.445.445 0 0 0 .669.588l.836-.95v2.383a.445.445 0 0 0 .891 0V4.333l.722.877a.446.446 0 0 0 .688-.566z"/><path fill="#FFF" d="M20.889 105.477a4.869 4.869 0 1 1-3.447-8.316 4.877 4.877 0 0 1 8.322 3.445 4.879 4.879 0 0 1-4.875 4.871zm0-9.054a4.184 4.184 0 0 0-4.186 4.183 4.184 4.184 0 0 0 4.186 4.183 4.184 4.184 0 0 0 4.185-4.183 4.189 4.189 0 0 0-4.185-4.183z"/><path fill="#FFF" d="M22.797 100.378l-1.511-1.837a.446.446 0 0 0-.68-.011l-1.615 1.837a.445.445 0 0 0 .668.588l.837-.95v2.383a.445.445 0 0 0 .89 0v-2.322l.723.878a.446.446 0 0 0 .688-.566zm103.539-76.516a4.869 4.869 0 1 1-3.447-8.316 4.877 4.877 0 0 1 8.321 3.445 4.879 4.879 0 0 1-4.874 4.871zm0-9.054a4.184 4.184 0 0 0-4.186 4.183 4.184 4.184 0 0 0 4.186 4.183 4.184 4.184 0 0 0 4.185-4.183 4.189 4.189 0 0 0-4.185-4.182z"/><path fill="#FFF" d="M128.244 18.763l-1.512-1.837a.446.446 0 0 0-.679-.01l-1.616 1.836a.445.445 0 0 0 .67.588l.835-.95v2.383a.445.445 0 0 0 .892 0v-2.321l.722.877a.446.446 0 0 0 .688-.566z"/></g></svg>