<svg xmlns="http://www.w3.org/2000/svg" width="240" height="240"><g fill="none" transform="translate(5 35)"><path fill="#F1F1F1" d="M217.393 169l.262-.485c-3.512-1.901-7.883-4.267-10.166-8.15-2.25-3.828-2.3-9.026-.131-13.565 1.846-3.863 5.237-7.325 9.806-10.01.902-.53 1.848-1.031 2.763-1.517 2.211-1.173 4.499-2.386 6.384-4.108 2.597-2.37 4.563-6.35 3.098-9.893a6.57 6.57 0 0 0-5.694-3.988l-.031.55a6.02 6.02 0 0 1 5.218 3.652c1.36 3.294-.507 7.03-2.962 9.272-1.834 1.674-4.09 2.871-6.271 4.028-.92.488-1.872.993-2.784 1.529-4.664 2.74-8.13 6.284-10.024 10.247-2.247 4.703-2.188 10.099.154 14.083 2.36 4.015 6.806 6.421 10.378 8.355z"/><ellipse cx="220.224" cy="117.847" fill="#F1F1F1" rx="4.819" ry="2.343"/><ellipse cx="216.369" cy="133.283" fill="#F1F1F1" rx="4.819" ry="2.343"/><ellipse cx="225.181" cy="135.764" fill="#F1F1F1" rx="4.819" ry="2.343"/><ellipse cx="211.412" cy="148.72" fill="#F1F1F1" rx="4.819" ry="2.343"/><ellipse cx="201.774" cy="148.72" fill="#F1F1F1" rx="4.819" ry="2.343"/><path fill="#F9A826" d="M37.806 121.143h-17.1a1.75 1.75 0 0 1-1.746-1.748V62.998a1.75 1.75 0 0 1 1.746-1.748h17.1a1.75 1.75 0 0 1 1.746 1.748v56.397a1.75 1.75 0 0 1-1.746 1.748zm31.183 0h-17.1a1.75 1.75 0 0 1-1.746-1.748V40.618a1.75 1.75 0 0 1 1.746-1.748h17.1a1.75 1.75 0 0 1 1.746 1.748v78.777a1.75 1.75 0 0 1-1.746 1.748zm31.183 0h-17.1a1.75 1.75 0 0 1-1.746-1.748V62.998a1.75 1.75 0 0 1 1.747-1.748h17.1a1.75 1.75 0 0 1 1.746 1.748v56.397a1.75 1.75 0 0 1-1.747 1.748zm31.183.001h-17.1a1.712 1.712 0 0 1-1.746-1.67V31.705a1.711 1.711 0 0 1 1.747-1.67h17.1a1.711 1.711 0 0 1 1.746 1.67v87.77a1.711 1.711 0 0 1-1.746 1.67zm31.184 0h-17.1a1.749 1.749 0 0 1-1.747-1.749V15.883a1.749 1.749 0 0 1 1.747-1.749h17.1c.964 0 1.745.784 1.746 1.749v103.512a1.749 1.749 0 0 1-1.746 1.748z"/><ellipse cx="29.256" cy="50.649" fill="#3F3D56" rx="3.53" ry="3.534"/><ellipse cx="60.439" cy="27.68" fill="#3F3D56" rx="3.53" ry="3.534"/><ellipse cx="91.622" cy="50.649" fill="#3F3D56" rx="3.53" ry="3.534"/><ellipse cx="122.805" cy="16.49" fill="#3F3D56" rx="3.53" ry="3.534"/><ellipse cx="153.989" cy="3.534" fill="#3F3D56" rx="3.53" ry="3.534"/><path fill="#CBCBCB" d="M182.576 121.8H.276a.276.276 0 0 1 0-.552h182.3a.276.276 0 0 1 0 .551zm45.438 47.135H138.79a.276.276 0 0 1 0-.55h89.223a.276.276 0 0 1 0 .55z"/><path fill="#FFB7B7" d="M170.717 117.32a2.187 2.187 0 0 0-.285-3.34l1.083-4.877-2.8-1.38-1.432 6.907a2.2 2.2 0 0 0 .523 2.871 2.194 2.194 0 0 0 2.911-.182zm30.618.106a2.187 2.187 0 0 0-.543-3.307l.703-4.945-2.898-1.16-.894 6.997a2.199 2.199 0 0 0 .744 2.822 2.194 2.194 0 0 0 2.888-.407z"/><path fill="#FFB7B7" d="M179.509 165.962L176.654 165.962 175.296 154.939 179.51 154.939z"/><path fill="#2F2E41" d="M180.237 168.733h-9.206v-.117a3.585 3.585 0 0 1 3.583-3.587h5.623v3.704z"/><path fill="#FFB7B7" d="M189.057 165.962L186.202 165.962 184.844 154.939 189.058 154.939z"/><path fill="#2F2E41" d="M189.786 168.733h-9.207v-.117a3.585 3.585 0 0 1 3.584-3.587h5.623v3.704zm5.02-95.512l3.078-1.112s1.307.277 1.307 3.825c0 3.547 3.47 36.628 3.47 36.628l-6.073 1.601-3.433-31.386 1.65-9.556zm-20.573 0l-3.078-1.112s-1.307.277-1.307 3.825c0 3.547-3.47 36.628-3.47 36.628l6.073 1.601 3.433-31.386-1.65-9.556zm.04 37.73l-.842 24.85 1.863 27.489 4.8.11.7-25.642 3.958-12.82-.399 37.789 5.436-.065 3.366-25.999s4.446-21.516 1.98-25.712l-11.353-3.78-9.51 3.78z"/><path fill="#E5E5E5" d="M174.365 107.956l-.274 5.978s3.831 1.909 10.565.746c6.733-1.162 11.21-.396 11.21-.396l-.517-7.62-20.984 1.292z"/><path fill="#2F2E41" d="M171.032 72.197l8.855-3.884.528-2.034 8.614.25.372 2.078 8.483 3.502-3.737 13.01.383 9.152 4.661 16.68s-3.931 3.342-13.377 1.904l-1.63-3.287-.996 3.476s-8.283 3.05-10.579-.92l1.664-28.68-3.24-11.247z"/><ellipse cx="184.643" cy="58.643" fill="#FFB7B7" rx="5.72" ry="5.726"/><path fill="#2F2E41" d="M191.44 56.424a3.489 3.489 0 0 0-.578-1.293 6.99 6.99 0 0 0-1.042-3.008 3.155 3.155 0 0 0-.934-1.078 2.753 2.753 0 0 0-1.468-.367c-.093-.001-.26.027-.412.034a5.95 5.95 0 0 0-.291-.082c-.057-.127-.17-.497-.202-.472l-.426.34a8.293 8.293 0 0 0-.543-.076l-.198-.567c-.108.17-.202.346-.282.53a8.36 8.36 0 0 0-.543-.01l-.362-.348a.511.511 0 0 1-.4.392c-.166.017-.332.04-.498.066h-.04c-.892-.023-1.851-.063-2.597.427a2.56 2.56 0 0 0-.827.94c-.091.062-.183.124-.271.19a2.97 2.97 0 0 0-.765.759 3.22 3.22 0 0 0-.339.82 7.877 7.877 0 0 0-.39 2.69c.03.917.377 1.797.98 2.49.383.41.869.714 1.252 1.125.789.846.936 2.026 1.611 2.921.713.947 2.016 1.57 3.16 1.749a5.273 5.273 0 0 0 3.93-.982c.268-.186.496-.425.67-.702.397-.687.228-1.551.376-2.33.276-1.463 1.67-2.69 1.429-4.158z"/><path fill="#3F3D56" d="M29.068 50.87L28.739 50.428 60.439 26.804 91.522 50.011 123.029 15.769 123.086 15.745 153.664 3.113 153.874 3.622 123.352 16.232 91.59 50.75 60.439 27.491z"/></g></svg>