<svg xmlns="http://www.w3.org/2000/svg" width="240" height="240"><g fill="none" transform="translate(20 24)"><path fill="#F2F2F2" d="M180.11 186.01c.756.047 1.175-.894.602-1.443l-.057-.226.023-.055c.766-1.827 3.361-1.814 4.121.015.674 1.625 1.532 3.251 1.743 4.968a6.615 6.615 0 0 1-.116 2.274 26.519 26.519 0 0 0 2.41-11.01c0-.952-.051-1.904-.158-2.854a26.274 26.274 0 0 0-.365-2.315 26.829 26.829 0 0 0-5.315-11.366 7.132 7.132 0 0 1-2.967-3.079c-.23-.47-.41-.974-.495-1.488.145.02.545-2.181.436-2.316.201-.306.561-.458.781-.756 1.093-1.483 2.6-1.224 3.386.791 1.68.848 1.696 2.255.665 3.608-.656.86-.746 2.025-1.32 2.947.058.076.12.149.179.225a26.992 26.992 0 0 1 2.816 4.463c-.224-1.748.106-3.854.67-5.212.64-1.546 1.842-2.85 2.9-4.186 1.27-1.607 3.876-.905 4.1 1.13l.006.06a7.876 7.876 0 0 0-.462.282c-.858.568-.56 1.898.455 2.054l.023.004a11.238 11.238 0 0 1-.296 1.68c1.357 5.25-1.572 7.162-5.756 7.248-.092.048-.182.095-.275.14a26.852 26.852 0 0 1 1.014 3.66 26.187 26.187 0 0 1 .45 7.537l.007-.049c.3-1.544 1.139-2.987 2.356-3.987 1.813-1.49 4.374-2.039 6.33-3.236.942-.577 2.149.168 1.984 1.26l-.008.053a7.583 7.583 0 0 0-1.311.692c-.858.567-.562 1.897.454 2.054l.024.004.047.007a11.244 11.244 0 0 1-2.067 3.239c-.848 4.583-4.493 5.018-8.391 3.683h-.003a27.55 27.55 0 0 1-1.85 5.4h-6.605c-.024-.072-.045-.148-.067-.222.611.038 1.227.002 1.828-.109-.49-.601-.98-1.208-1.47-1.81a.41.41 0 0 1-.03-.035l-.749-.922c-.013-.944.095-1.886.322-2.802z"/><path fill="#CCC" d="M58.564 191.564c0 .242.195.436.437.436h140.512a.435.435 0 0 0 .436-.436.435.435 0 0 0-.436-.437H59a.435.435 0 0 0-.437.437z"/><path fill="#3F3D56" d="M79.886 191.814H15.21c-7.887 0-14.302-6.419-14.302-14.308V38.448c0-7.89 6.415-14.309 14.302-14.309h64.676c7.886 0 14.302 6.42 14.302 14.309v139.058c0 7.89-6.416 14.308-14.302 14.308z"/><path fill="#3F3D56" d="M94.188 75.289a.606.606 0 0 0-.605.605v19.371a.606.606 0 0 0 1.21 0v-19.37a.606.606 0 0 0-.605-.606z"/><path fill="#FFF" d="M92.826 38.448v139.055c0 6.868-5.342 12.485-12.097 12.921h-.004c-.1.006-.199.012-.302.015-.178.009-.357.012-.538.012 0 0-.666-.048-1.882-.14a890.1 890.1 0 0 1-5.246-.405c-.668-.051-1.373-.109-2.118-.17-1.482-.12-3.11-.253-4.855-.405-.696-.058-1.416-.121-2.151-.184-4.136-.356-8.27-.733-12.403-1.132a356.72 356.72 0 0 1-2.27-.218l-.604-.061c-3.165-.312-46.087-8.61-46.087-10.233V38.448c0-7.152 5.794-12.948 12.942-12.948h7.726c1.235 0 2.227.962 2.333 2.194.009.082.018.163.033.245.224 1.238 1.358 2.1 2.617 2.1h39.255c1.259 0 2.394-.862 2.618-2.1.014-.082.024-.163.033-.245.106-1.232 1.098-2.194 2.332-2.194h7.727c7.148 0 12.941 5.796 12.941 12.948z"/><path fill="#3F3D56" d="M.605 60.761a.606.606 0 0 0-.605.606v4.842a.606.606 0 0 0 1.21 0v-4.842a.606.606 0 0 0-.605-.606zm0 14.528a.606.606 0 0 0-.605.605v9.383a.606.606 0 0 0 1.21 0v-9.383a.606.606 0 0 0-.605-.605zm0 13.317a.606.606 0 0 0-.605.606v9.382a.606.606 0 0 0 1.21 0v-9.382a.606.606 0 0 0-.605-.606z"/><g fill="#E6E6E6" transform="translate(11.042 26.712)"><rect width="11.798" height="1.513" y=".908" rx=".114"/><ellipse cx="63.028" cy="1.211" rx="1.21" ry="1.211"/><ellipse cx="66.356" cy="1.211" rx="1.21" ry="1.211"/><ellipse cx="69.683" cy="1.211" rx="1.21" ry="1.211"/><path d="M62.016 82.772H10.693a1.468 1.468 0 0 1-1.467-1.467c0-.808.658-1.467 1.467-1.467h51.323c.808 0 1.466.658 1.466 1.467 0 .81-.658 1.467-1.466 1.467z"/></g><ellipse cx="47.581" cy="145.06" fill="#F9A826" rx="21.262" ry="21.272"/><path fill="#FFF" d="M50.96 138.115c-1.795.073-3.823.197-5.15 1.574-1.152 1.197-1.404 2.973-.236 4.25 1.172 1.282 2.993 1.455 4.344 2.454 1.585 1.174 1.353 3.495-.181 4.607-1.81 1.312-4.147.7-5.8-.547-.424-.32-.836.396-.417.712 1.482 1.118 3.416 1.74 5.249 1.206 1.654-.483 2.936-1.832 3.066-3.587a3.4 3.4 0 0 0-.697-2.35c-.549-.697-1.34-1.127-2.14-1.476-1.378-.602-3.75-1.38-3.349-3.34.485-2.373 3.374-2.599 5.31-2.678.53-.022.532-.847 0-.825z"/><path fill="#FFF" d="M47.63 136.992l-.078 18.115c-.003.531.822.532.824 0l.08-18.115c.002-.532-.823-.532-.825 0zM160.234 0H55.402c-3.846 0-6.973 3.128-6.973 6.976v71.87c0 3.848 3.127 6.976 6.973 6.976h104.831c3.846 0 6.973-3.128 6.973-6.975V6.976c0-3.848-3.127-6.976-6.973-6.976z"/><ellipse cx="107.335" cy="30.997" fill="#F9A826" rx="11.731" ry="11.736"/><path fill="#FFF" d="M109.56 25.76c-1.451.06-3.086.152-4.185 1.233-.91.896-1.228 2.29-.392 3.344.88 1.11 2.345 1.32 3.494 2.03.714.441 1.188 1.11 1.203 1.968a2.596 2.596 0 0 1-.976 2.058c-1.521 1.236-3.595.724-5.033-.356-.283-.213-.558.264-.278.475 1.192.895 2.726 1.415 4.208 1.03 1.365-.355 2.464-1.43 2.612-2.864.156-1.513-.837-2.543-2.124-3.134-1.177-.54-3.24-1.115-3.046-2.793.247-2.133 2.858-2.373 4.518-2.44.352-.016.354-.566 0-.551z"/><path fill="#FFF" d="M107.037 24.762l-.066 15.096c-.001.353.548.354.55 0l.066-15.096c.002-.354-.548-.354-.55 0z"/><path fill="#3F3D56" d="M160.233 0H55.402c-3.846 0-6.973 3.128-6.973 6.976v71.87c0 3.848 3.127 6.976 6.973 6.976h104.831c3.846 0 6.973-3.128 6.973-6.975V6.976c0-3.848-3.127-6.976-6.973-6.976zm6.24 78.847a6.246 6.246 0 0 1-6.24 6.242H55.402a6.246 6.246 0 0 1-6.24-6.242V6.976a6.246 6.246 0 0 1 6.24-6.242h104.831a6.246 6.246 0 0 1 6.24 6.242v71.87z"/><path fill="#E6E6E6" d="M95.73 7.097H85.445a.94.94 0 0 0 0 1.881h10.287a.94.94 0 0 0 0-1.881zm17.23 0h-10.286a.94.94 0 0 0 0 1.881h10.287a.94.94 0 0 0 0-1.881zm17.23 0h-10.286a.94.94 0 0 0 0 1.881h10.287a.94.94 0 0 0 0-1.881z"/><path fill="#F9A826" d="M147.157 49.335H68.478a5.942 5.942 0 0 0-5.935 5.938v5.362a5.942 5.942 0 0 0 5.935 5.938h78.679a5.942 5.942 0 0 0 5.935-5.938v-5.362a5.942 5.942 0 0 0-5.935-5.938z"/><path fill="#3F3D56" d="M26.827 77.567l-3.017-1.43c1.238 1.728 2.304 4.426 2.874 6.574.967-2 2.525-4.448 4.067-5.91l-3.188.82c1.965-9.633 9.355-16.55 17.818-16.55v-.733c-8.84 0-16.548 7.206-18.554 17.23z"/><path fill="#E6E6E6" d="M40.713 92.247H21.65a1.469 1.469 0 0 1-1.466-1.467c0-.81.658-1.468 1.466-1.468h19.063a1.468 1.468 0 0 1 0 2.935z"/><path fill="#FFB6B6" d="M167.526 87.468L167.333 102.447 163.608 115.799 160.631 114.687 161.952 102.449 161.779 85.887z"/><ellipse cx="161.532" cy="117.576" fill="#FFB6B6" rx="3.533" ry="2.097" transform="rotate(-79.681 161.532 117.576)"/><path fill="#E6E6E6" d="M163.005 69.634s6.382.088 6.376 3.48c-.003 1.914-.414 19.3-1.558 29.861-.882 8.144-2.566 10.27-2.566 10.27l-4.032-9.17 1.78-34.441z"/><path fill="#FFB6B6" d="M162.841 100.236h-21.55c1.805-4.033 2.916-7.874 1.18-10.929l20.37-1.181c-1.018 4.124-1.142 8.171 0 12.11z"/><path fill="#E6E6E6" d="M160.184 64.497l-8.561-.59-3.543 4.43-1.796.327a5.475 5.475 0 0 0-4.489 5.628l.699 15.885 20.463 1.493 4.903-20.686-5.904-2.352-1.772-4.135z"/><path fill="#FFB6B6" d="M107.973 69.29c.608.546 1.041 1.185 1.27 1.804l6.116 4.842-2.389 2.844-5.946-5.218c-.64-.163-1.32-.527-1.928-1.073-1.387-1.25-1.868-2.978-1.074-3.861.795-.884 2.563-.587 3.951.661z"/><path fill="#E6E6E6" d="M151.208 73.366l-23.431 15.83L110.98 77.5l2.521-4.57 13.22 7.687 12.19-9.366c4.342-4.08 9.783-3.288 12.296 2.114z"/><ellipse cx="155.396" cy="56.225" fill="#FFB6B6" rx="6.352" ry="6.355"/><path fill="#2F2E41" d="M164.029 54.664v1.233l-7.163-2.017-5.371 1.126a5.613 5.613 0 0 0-.708-2.333c.281 1.14.313 2.024.015 2.48l-.722.15a1.466 1.466 0 0 0-.642-.767c-.029-.018-.066-.033-.099-.022-.05.018-.055.084-.055.136.008.271.015.543.026.814l-2.075.433v-1.233c-1.99-4.48 3.257-8.358 8.399-8.398 2.32-.019 4.417.938 5.939 2.457a8.384 8.384 0 0 1 2.456 5.941z"/><path fill="#2F2E41" d="M168.059 69.114l-.54-.045c.038-.177.076-.352.111-.528.3-1.486-.36-3.376-.408-4.803-.255 1.507.18 3.362-.27 4.793-.05.16-2.008 1.186-2.061 1.343-2.167-.793-4.423-3.325-6.977-1.846-1.511.875-3.235.492-4.95.09-.425-.098-.484-2.196-.904-2.278-.753-.148-1.858 1.759-2.566 1.833l2.933-11.37c0-6.184-.573-12.674 7.258-10.487 1.97.55 3.919.982 5.372 2.608 1.454 1.628 2.49 3.905 2.856 6.496.221 1.564 1.601 6.874.146 14.194z"/><path fill="#FFB7B7" d="M163.002 183.447L159.506 183.53 157.557 167.816 162.716 167.694 163.002 183.447z"/><path fill="#2F2E41" d="M151.007 190.745c0 .59.42 1.07.936 1.07h6.94s.683-2.747 3.467-3.929l.192 3.928h3.58l-.434-6.316s.958-3.38-1.031-5.107c-1.989-1.727-.378-1.487-.378-1.487l-.782-3.91-5.41.637-.04 6.137-2.625 6.092-3.85 1.902c-.343.17-.565.556-.565.983z"/><path fill="#FFB7B7" d="M152.365 180.886L149.005 181.854 143.134 167.149 148.094 165.721z"/><path fill="#2F2E41" d="M142.614 190.99c.15.571.677.928 1.177.797l6.712-1.762s-.036-2.83 2.358-4.68l1.182 3.751 3.463-.908-2.022-6s.07-3.512-2.293-4.678c-2.361-1.166-.743-1.342-.743-1.342l-1.748-3.583-5.07 1.99 1.517 5.945-.994 6.558-3.241 2.819c-.289.25-.406.68-.297 1.093zm18.244-91.683l2.2.734c3.439 6.354 4.897 14.793 4.703 24.968l-3.907 45.703h-6.392l-4.678-50.915-8.248 19.11 6.035 31.805-6.035.616-12.155-33.072 8.465-38.437 20.012-.512z"/></g></svg>