<svg xmlns="http://www.w3.org/2000/svg" width="240" height="240"><g fill="none" transform="translate(19 21)"><path fill="#F2F2F2" d="M194.125 149.945l9.42 1.47a30.674 30.674 0 0 0 6.404-13.318c-6.888 5.627-17.364 2.637-25.717 5.709a18.483 18.483 0 0 0-11.07 11.582l-4.605 4.943a31.067 31.067 0 0 0 25.925-1.424 29.951 29.951 0 0 0 6.104-4.373c-3.297-2.072-6.461-4.589-6.461-4.589z"/><path fill="#F2F2F2" d="M190.78 134.91l9.09-2.878a30.639 30.639 0 0 0-.221-14.77c-3.651 8.102-14.363 10.088-20.467 16.555a18.441 18.441 0 0 0-4.733 15.294l-1.911 6.473a31.023 31.023 0 0 0 22.567-12.812 29.87 29.87 0 0 0 3.509-6.63c-3.876-.388-7.834-1.232-7.834-1.232z"/><path fill="#CCC" d="M210 163.325a.369.369 0 0 1-.37.37H.37a.37.37 0 1 1 0-.739h209.26a.37.37 0 0 1 .37.37z"/><ellipse cx="86.713" cy="80.907" fill="#E6E6E6" rx="66.823" ry="66.683"/><path fill="#FFF" d="M144.212 80.907a57.26 57.26 0 0 1-24.675 47.113c-19.733 13.688-45.915 13.688-65.648 0a57.345 57.345 0 0 1-24.675-47.112A57.345 57.345 0 0 1 53.89 33.794c19.733-13.688 45.915-13.688 65.648 0a57.26 57.26 0 0 1 24.675 47.112z"/><ellipse cx="86.713" cy="80.907" fill="#F9A826" rx="52.526" ry="52.416"/><path fill="#000" d="M86.85 28.638c-.796 0-1.588.02-2.375.055 27.548 2.417 48.5 25.735 47.913 53.326-.587 27.59-22.511 50-50.137 51.249a53.32 53.32 0 0 0 4.6.202c29.008 0 52.525-23.468 52.525-52.416 0-28.949-23.517-52.416-52.526-52.416z" opacity=".2"/><path fill="#FFF" d="M86.869 24.77a1.71 1.71 0 0 0-1.71 1.705v7.444c0 .942.766 1.706 1.71 1.706s1.71-.764 1.71-1.706v-7.444a1.71 1.71 0 0 0-1.71-1.706zm34.135 10.076a48.55 48.55 0 0 0-1.467-1.051 1.71 1.71 0 0 0-1.523.741l-4.199 6.15c-.52.779-.314 1.83.46 2.356.775.527 1.83.332 2.365-.436l4.2-6.15c.324-.474.386-1.08.164-1.61zm19.077 28.044a1.705 1.705 0 0 0-2.225-.936l-6.912 2.8a1.705 1.705 0 0 0-.918 2.214 1.71 1.71 0 0 0 2.204.947l6.913-2.8a1.708 1.708 0 0 0 .938-2.225zm-80.47-22.203l-4.199-6.15a1.71 1.71 0 0 0-1.523-.742 48.55 48.55 0 0 0-1.467 1.051c-.221.53-.16 1.136.165 1.61l4.2 6.15c.534.768 1.59.963 2.364.436.775-.526.98-1.577.46-2.355zM42.483 64.755l-6.912-2.801a1.71 1.71 0 0 0-2.205.947c-.352.864.057 1.85.918 2.213l6.912 2.801a1.71 1.71 0 0 0 2.205-.947 1.705 1.705 0 0 0-.918-2.213zm44.386 61.435a1.71 1.71 0 0 0-1.71 1.706v7.443c0 .943.766 1.706 1.71 1.706s1.71-.763 1.71-1.706v-7.443a1.71 1.71 0 0 0-1.71-1.706zm33.97-.831l-4.199-6.15a1.71 1.71 0 0 0-2.963.21 1.703 1.703 0 0 0 .138 1.71l4.2 6.15c.34.498.919.78 1.522.74a48.55 48.55 0 0 0 1.467-1.05c.222-.53.16-1.136-.165-1.61zM139.143 96.7l-6.913-2.8a1.71 1.71 0 0 0-2.204.947c-.352.864.057 1.85.918 2.213l6.912 2.8a1.71 1.71 0 0 0 2.204-.946 1.705 1.705 0 0 0-.917-2.214zM59.16 118.76a1.712 1.712 0 0 0-2.375.45l-4.199 6.15a1.692 1.692 0 0 0-.165 1.61c.482.36.973.71 1.467 1.05a1.71 1.71 0 0 0 1.523-.74l4.2-6.15a1.702 1.702 0 0 0-.451-2.37zM43.42 94.836a1.705 1.705 0 0 0-2.225-.936l-6.912 2.8a1.705 1.705 0 0 0-.918 2.214 1.71 1.71 0 0 0 2.205.947l6.912-2.8a1.708 1.708 0 0 0 .939-2.225z"/><path fill="#3F3D56" d="M89.087 80.06a3.572 3.572 0 0 1-2.925 4.115l-30.333 5.15a3.574 3.574 0 0 1-4.124-2.919 3.568 3.568 0 0 1 2.925-4.114l30.333-5.149a3.578 3.578 0 0 1 4.124 2.918z"/><path fill="#3F3D56" d="M121.012 113.598a2.337 2.337 0 0 1-3.296.013l-32.654-32.33a2.323 2.323 0 0 1-.01-3.287 2.334 2.334 0 0 1 3.293-.016L121 110.308c.913.906.918 2.378.013 3.29z"/><ellipse cx="86.713" cy="80.907" fill="#CCC" rx="4.04" ry="4.032"/><g fill="#E6E6E6" transform="translate(24.54)"><path d="M34.343 10.992c-6.202 9.73-15.665 16.188-27.335 20.43a2.197 2.197 0 0 1-3.07-.44C-2.403 22.536-.972 10.464 7.395 4.01a19.32 19.32 0 0 1 27.213 3.684l.175.233a2.186 2.186 0 0 1-.44 3.065zM89.74 7.694a19.32 19.32 0 0 1 27.213-3.683c8.366 6.453 9.798 18.525 3.459 26.971a2.195 2.195 0 0 1-3.072.44c-10.833-4.14-19.718-11.302-27.335-20.43a2.189 2.189 0 0 1-.44-3.065l.175-.233zM87.02 138.679a1.707 1.707 0 0 0-.657 2.322l9.866 17.593a1.711 1.711 0 0 0 2.327.655c.823-.46 1.118-1.5.657-2.322l-9.866-17.592a1.714 1.714 0 0 0-2.327-.656zm-52.02.656l-9.865 17.592a1.704 1.704 0 0 0 .657 2.322c.824.46 1.866.167 2.327-.655L37.984 141c.3-.532.293-1.183-.02-1.708a1.71 1.71 0 0 0-2.963.042z"/><ellipse cx="98.227" cy="157.826" rx="5.284" ry="5.273"/><ellipse cx="101.957" cy="22.908" rx="5.284" ry="5.273"/><ellipse cx="61.863" cy="10.502" rx="5.284" ry="5.273"/><ellipse cx="23.634" cy="22.288" rx="5.284" ry="5.273"/><ellipse cx="27.053" cy="157.826" rx="5.284" ry="5.273"/></g><path fill="#FFB7B7" d="M118.622 110.633a2.647 2.647 0 0 0 4.025.52l8.29 4.433-.444-4.857-7.805-3.466a2.665 2.665 0 0 0-3.534-.118 2.652 2.652 0 0 0-.532 3.488z"/><path fill="#3F3D56" d="M124.663 112.328l3.249-4.476 15.652 7.384 19.477-3.647a6.683 6.683 0 0 1 5.487 1.417 6.654 6.654 0 0 1 2.417 5.116c.002 3.676-2.977 6.66-6.661 6.672l-22.321.04-17.3-12.506z"/><path fill="#FFB7B7" d="M119.659 189.627l-3.288-1.57 4.516-13.71 4.851 2.315-6.08 12.965zm22.037-2.21a88.518 88.518 0 0 1-2.904 1.734v.007l-.015.003-.005.002-.371.092-.534-1.407-.246-.649-.348-.918-.637-1.68-3.357-8.842 5.218-1.284.196.797h.002l.097.396 1.823 7.378.372 1.508.012.046.224.9.193.781.215.873.065.262z"/><path fill="#2F2E41" d="M172.823 156.362a97.56 97.56 0 0 1-2.958 4.458c0 .002-.002.002-.005.005-.389.359-.818.672-1.28.932-.019.014-.04.024-.06.036-.34.188-.701.332-1.077.431l-.408.102a26.627 26.627 0 0 1-4.194.646c-3.455.252-6.818-.155-10.33-.823-1.733-.327-3.503-.72-5.336-1.127-.602-.135-1.205-.269-1.808-.4-.046-.01-.094-.022-.142-.031-.885-.194-1.771-.382-2.659-.564a125.99 125.99 0 0 0-3.537-.675l.087 1.718c.072 1.322.347 2.625.816 3.863.522 1.523.934 2.727.063 5.236l-.42 1.214a4.14 4.14 0 0 1-.428 3.67l-.084.127 3.503 8.846.227.573h-1.794l-2.207.003h-3.74l-5.396-10.805-.259-.515v-.027l.558-20.762c.007-.183.022-.37.046-.553a6.31 6.31 0 0 1 2.407-4.25 6.101 6.101 0 0 1 4.537-1.238l1.847.238 3.774.487 2.659.344.053.008 7.84 1.012.562-2.29.104-.038 3.3-1.207 11.417-4.176.029-.01.75-.274.09.145c.027.043.053.086.077.13a22.307 22.307 0 0 1 1.804 4.178 65.48 65.48 0 0 1 1.953 7.51l.008.027a.88.88 0 0 0 .014.074c.263 1.094.08 2.43-.403 3.752z"/><path fill="#2F2E41" d="M173.305 148.71a6.285 6.285 0 0 0-.13-.462 32.926 32.926 0 0 0-1.338-3.378 54.348 54.348 0 0 0-2.067-4.048 92.22 92.22 0 0 0-2.009-3.412l-.07-.116-11.295 1.509-4.207.561-.25 2.091-.061.518c-.002 0-.002 0 0 .003l-.169 1.412v.002l-.224 1.865-.02-.002-6.242-.807-6.432-.832-3.455-.445a6.097 6.097 0 0 0-4.537 1.238 6.313 6.313 0 0 0-2.407 4.25 5.994 5.994 0 0 0-.044.514l-3.26 7.708a49.647 49.647 0 0 0-3.684 14.466l-2.39 7.626.34.032 5.066.47 1.338.125 2.945-4.291c.337-.49.654-.994.951-1.509.49-.842.924-1.714 1.302-2.612l6.372-15.131c.493.084.98.164 1.463.24 2.234.362 4.378.657 6.432.885 6.681.744 12.467.802 17.617.17a48.086 48.086 0 0 0 5.995-1.11 6.156 6.156 0 0 0 4.31-4.019 6.261 6.261 0 0 0 .16-3.51zm-52.596 38.678l-3.557-1.701-.558-.268-.89 2.183-6.22 1.367a1.472 1.472 0 0 0-.241 2.802l6.077 2.474 1.929-1.732-.474 2.325 2.29.933 2.508-7.969-.864-.414zm21.857-3.362l.227.573h-.227v-.573zm-1.238.696l-3.727 1.288-.585.202.906 2.177-3.456 5.337a1.47 1.47 0 0 0 .104 1.744 1.478 1.478 0 0 0 1.7.417l6.063-2.509.15-2.585 1.303 1.984 2.284-.944-3.836-7.424-.906.313z"/><path fill="#3F3D56" d="M172.375 152.201c-.221 0-.439-.054-.635-.157l-19.666-10.254-.227-.929-.428-2.937.006-.028 1.87-8.605c-.034-.073-.106-.195-.186-.331-.836-1.412-3.377-5.71 1.473-11.625l8.514-9.906 7.308-.314.084.105a18.963 18.963 0 0 1 3.235 17.644l-.76 13.714.815 2.77a7.627 7.627 0 0 1-.224 4.945l.187 4.484a1.368 1.368 0 0 1-1.366 1.424z"/><path fill="#FFB7B7" d="M155.316 163.511a2.641 2.641 0 0 0 .662-3.996l4.727-8.114-4.88.274-3.742 7.664a2.651 2.651 0 0 0-.24 3.52 2.665 2.665 0 0 0 3.473.652z"/><path fill="#3F3D56" d="M157.224 157.546l-4.368-3.396 7.938-15.353-2.974-19.552a6.65 6.65 0 0 1 1.61-5.423 6.68 6.68 0 0 1 5.207-2.232c3.681.125 6.567 3.2 6.45 6.875l-.735 22.262-13.128 16.819z"/><path fill="#2F2E41" d="M158.409 103.312v-7.216a9.666 9.666 0 0 1 4.84-8.377 9.707 9.707 0 0 1 9.69-.007 9.666 9.666 0 0 1 4.85 8.372v.012c1.708 3.551.64 5.24 0 7.216a1.302 1.302 0 0 1-1.301 1.299H159.71c-.719-.001-1.3-.582-1.302-1.299z"/><ellipse cx="164.922" cy="96.904" fill="#FFB7B7" rx="7.253" ry="7.238"/><path fill="#2F2E41" d="M172.513 98.801c-.066-.01-.132-.024-.198-.034-1.13-.2-2.262-.397-3.39-.601l-.104-2.552-1.367 2.286c-3.117 1.032-6.034.449-8.777-.839a24.798 24.798 0 0 1-2.63-1.447 9.592 9.592 0 0 1 4.723-6.788 6.392 6.392 0 0 1 .847-.4 8.002 8.002 0 0 1 8.387 1.623c2.215 2.11 3.211 5.593 2.509 8.752z"/></g></svg>